<svg width="17" height="16" viewBox="0 0 17 16" fill="none" xmlns="http://www.w3.org/2000/svg">
<g id="Frame" clip-path="url(#clip0_1759_13345)">
<path id="Vector" d="M5.1639 8.05733L7.99257 10.8853L7.04923 11.8287L5.83057 10.61V14.3333H4.49723V10.6087L3.27857 11.8287L2.33523 10.8853L5.1639 8.05733ZM5.1639 1C6.30856 1.00005 7.41328 1.42074 8.26803 2.18208C9.12278 2.94342 9.66796 3.99231 9.7999 5.12933C10.6294 5.35554 11.3531 5.86607 11.8443 6.57169C12.3356 7.2773 12.5633 8.13313 12.4876 8.98959C12.412 9.84606 12.0377 10.6487 11.4303 11.2572C10.8229 11.8657 10.0209 12.2414 9.16457 12.3187V10.976C9.47135 10.9322 9.76633 10.8277 10.0323 10.6686C10.2983 10.5096 10.5299 10.2991 10.7136 10.0496C10.8974 9.80006 11.0296 9.51642 11.1025 9.21523C11.1754 8.91404 11.1876 8.60134 11.1384 8.29538C11.0891 7.98942 10.9795 7.69634 10.8157 7.43323C10.652 7.17013 10.4375 6.94228 10.1847 6.76298C9.93195 6.58368 9.64601 6.45653 9.34357 6.38894C9.04114 6.32135 8.72827 6.31469 8.42323 6.36933C8.52764 5.88326 8.522 5.37998 8.40671 4.89637C8.29143 4.41276 8.06943 3.96106 7.75697 3.57435C7.4445 3.18765 7.0495 2.87574 6.60088 2.66146C6.15226 2.44719 5.6614 2.33598 5.16423 2.33598C4.66707 2.33598 4.1762 2.44719 3.72759 2.66146C3.27897 2.87574 2.88396 3.18765 2.5715 3.57435C2.25904 3.96106 2.03704 4.41276 1.92176 4.89637C1.80647 5.37998 1.80083 5.88326 1.90523 6.36933C1.297 6.25511 0.668312 6.38719 0.157463 6.73651C-0.353386 7.08583 -0.704546 7.62377 -0.818766 8.232C-0.932986 8.84023 -0.800909 9.46892 -0.451592 9.97977C-0.102274 10.4906 0.435671 10.8418 1.0439 10.956L1.1639 10.976V12.3187C0.307534 12.2416 -0.494496 11.8659 -1.10201 11.2575C-1.70953 10.649 -2.08388 9.84637 -2.15965 8.98988C-2.23542 8.1334 -2.00778 7.27752 -1.51652 6.57185C-1.02526 5.86618 -0.301628 5.35559 0.527901 5.12933C0.659704 3.99225 1.20484 2.94327 2.05962 2.18191C2.9144 1.42055 4.01921 0.999909 5.1639 1Z" fill="#00ABAB"/>
</g>
<defs>
<clipPath id="clip0_1759_13345">
<rect width="16.3957" height="16" fill="white" transform="translate(0.117096)"/>
</clipPath>
</defs>
</svg>
