<svg width="17" height="16" viewBox="0 0 17 16" fill="none" xmlns="http://www.w3.org/2000/svg">
<g clip-path="url(#clip0_1701_11261)">
<path d="M8.16399 8.05733L10.9927 10.8853L10.0493 11.8287L8.83066 10.61V14.3333H7.49733V10.6087L6.27866 11.8287L5.33533 10.8853L8.16399 8.05733ZM8.16399 1C9.30865 1.00005 10.4134 1.42074 11.2681 2.18208C12.1229 2.94342 12.668 3.99231 12.8 5.12933C13.6295 5.35554 14.3531 5.86607 14.8444 6.57169C15.3357 7.2773 15.5634 8.13313 15.4877 8.98959C15.4121 9.84606 15.0378 10.6487 14.4304 11.2572C13.8229 11.8657 13.021 12.2414 12.1647 12.3187V10.976C12.4714 10.9322 12.7664 10.8277 13.0324 10.6686C13.2983 10.5096 13.53 10.2991 13.7137 10.0496C13.8974 9.80006 14.0296 9.51642 14.1026 9.21523C14.1755 8.91404 14.1877 8.60134 14.1385 8.29538C14.0892 7.98942 13.9795 7.69634 13.8158 7.43323C13.6521 7.17013 13.4376 6.94228 13.1848 6.76298C12.932 6.58368 12.6461 6.45653 12.3437 6.38894C12.0412 6.32135 11.7284 6.31469 11.4233 6.36933C11.5277 5.88326 11.5221 5.37998 11.4068 4.89637C11.2915 4.41276 11.0695 3.96106 10.7571 3.57435C10.4446 3.18765 10.0496 2.87574 9.60097 2.66146C9.15236 2.44719 8.66149 2.33598 8.16433 2.33598C7.66716 2.33598 7.17629 2.44719 6.72768 2.66146C6.27906 2.87574 5.88406 3.18765 5.57159 3.57435C5.25913 3.96106 5.03713 4.41276 4.92185 4.89637C4.80656 5.37998 4.80092 5.88326 4.90533 6.36933C4.2971 6.25511 3.6684 6.38719 3.15755 6.73651C2.64671 7.08583 2.29555 7.62377 2.18133 8.232C2.06711 8.84023 2.19918 9.46892 2.5485 9.97977C2.89782 10.4906 3.43576 10.8418 4.04399 10.956L4.16399 10.976V12.3187C3.30763 12.2416 2.5056 11.8659 1.89808 11.2575C1.29057 10.649 0.91621 9.84637 0.840441 8.98988C0.764673 8.1334 0.992311 7.27752 1.48357 6.57185C1.97483 5.86618 2.69846 5.35559 3.52799 5.12933C3.6598 3.99225 4.20493 2.94327 5.05971 2.18191C5.91449 1.42055 7.0193 0.999909 8.16399 1Z" fill="#00ABAB"/>
</g>
<defs>
<clipPath id="clip0_1701_11261">
<rect width="16.3957" height="16" fill="white" transform="translate(0.117188)"/>
</clipPath>
</defs>
</svg>
