<svg width="23" height="24" viewBox="0 0 23 24" fill="none" xmlns="http://www.w3.org/2000/svg">
<path d="M10 4.76C10.0976 4.8712 10.1574 5.0073 10.1717 5.15069C10.1859 5.29409 10.154 5.4382 10.08 5.56441C9.50186 6.55958 9.19993 7.67508 9.202 8.80829C9.202 12.5781 12.48 15.6308 16.52 15.6308C17.047 15.6308 17.56 15.5792 18.053 15.4808C18.2041 15.4501 18.3615 15.4618 18.5056 15.5145C18.6497 15.5672 18.774 15.6585 18.863 15.777C18.957 15.9003 19.0049 16.0492 18.9993 16.2006C18.9937 16.352 18.9349 16.4974 18.832 16.6142C18.0477 17.5175 17.0582 18.2453 15.9358 18.7445C14.8134 19.2437 13.5863 19.5018 12.344 19.5C7.734 19.5 4 16.018 4 11.7278C4 8.49891 6.114 5.72942 9.124 4.55562C9.27394 4.49621 9.44039 4.48401 9.59835 4.52087C9.75631 4.55772 9.89725 4.64163 10 4.76Z" fill="white"/>
</svg>
