<svg width="19" height="19" viewBox="0 0 19 19" fill="none" xmlns="http://www.w3.org/2000/svg">
<path fill-rule="evenodd" clip-rule="evenodd" d="M6.66562 9.14166C6.52418 9.28314 6.44473 9.475 6.44473 9.67504C6.44473 9.87509 6.52418 10.0669 6.66562 10.2084L10.9334 14.4762C11.003 14.5483 11.0862 14.6057 11.1783 14.6453C11.2703 14.6848 11.3693 14.7056 11.4695 14.7065C11.5697 14.7074 11.669 14.6883 11.7617 14.6503C11.8544 14.6124 11.9387 14.5564 12.0095 14.4855C12.0803 14.4147 12.1364 14.3305 12.1743 14.2378C12.2122 14.145 12.2313 14.0457 12.2304 13.9455C12.2296 13.8454 12.2088 13.7464 12.1692 13.6543C12.1297 13.5623 12.0722 13.479 12.0002 13.4094L8.26575 9.67504L12.0002 5.94064C12.1376 5.79836 12.2136 5.60779 12.2119 5.40998C12.2102 5.21217 12.1308 5.02295 11.991 4.88308C11.8511 4.7432 11.6619 4.66386 11.4641 4.66214C11.2663 4.66042 11.0757 4.73646 10.9334 4.87389L6.66562 9.14166Z" fill="white"/>
</svg>
