<svg width="24" height="24" viewBox="0 0 24 24" fill="none" xmlns="http://www.w3.org/2000/svg">
<path d="M12 15.1818C11.1197 15.1818 10.3692 14.8715 9.74855 14.2508C9.12788 13.6302 8.81776 12.8799 8.81818 12C8.81818 11.1197 9.12852 10.3692 9.74918 9.74855C10.3698 9.12788 11.1201 8.81776 12 8.81818C12.8803 8.81818 13.6308 9.12852 14.2515 9.74918C14.8721 10.3698 15.1822 11.1201 15.1818 12C15.1818 12.8803 14.8715 13.6308 14.2508 14.2515C13.6302 14.8721 12.8799 15.1822 12 15.1818ZM5.63637 12.6364C5.45606 12.6364 5.30482 12.5753 5.18264 12.4531C5.06046 12.3309 4.99958 12.1799 5 12C5 11.8197 5.06109 11.6685 5.18327 11.5463C5.30546 11.4241 5.45649 11.3632 5.63637 11.3636H6.90909C7.0894 11.3636 7.24064 11.4247 7.36282 11.5469C7.485 11.6691 7.54588 11.8201 7.54546 12C7.54546 12.1803 7.48436 12.3315 7.36218 12.4537C7.24 12.5759 7.08897 12.6368 6.90909 12.6364H5.63637ZM17.0909 12.6364C16.9106 12.6364 16.7594 12.5753 16.6372 12.4531C16.515 12.3309 16.4541 12.1799 16.4545 12C16.4545 11.8197 16.5156 11.6685 16.6378 11.5463C16.76 11.4241 16.911 11.3632 17.0909 11.3636H18.3636C18.5439 11.3636 18.6952 11.4247 18.8174 11.5469C18.9395 11.6691 19.0004 11.8201 19 12C19 12.1803 18.9389 12.3315 18.8167 12.4537C18.6945 12.5759 18.5435 12.6368 18.3636 12.6364H17.0909ZM12 7.54546C11.8197 7.54546 11.6685 7.48436 11.5463 7.36218C11.4241 7.24 11.3632 7.08897 11.3636 6.90909V5.63637C11.3636 5.45606 11.4247 5.30482 11.5469 5.18264C11.6691 5.06046 11.8201 4.99958 12 5C12.1803 5 12.3315 5.06109 12.4537 5.18327C12.5759 5.30546 12.6368 5.45649 12.6364 5.63637V6.90909C12.6364 7.0894 12.5753 7.24064 12.4531 7.36282C12.3309 7.485 12.1799 7.54588 12 7.54546ZM12 19C11.8197 19 11.6685 18.9389 11.5463 18.8167C11.4241 18.6945 11.3632 18.5435 11.3636 18.3636V17.0909C11.3636 16.9106 11.4247 16.7594 11.5469 16.6372C11.6691 16.515 11.8201 16.4541 12 16.4545C12.1803 16.4545 12.3315 16.5156 12.4537 16.6378C12.5759 16.76 12.6368 16.911 12.6364 17.0909V18.3636C12.6364 18.5439 12.5753 18.6952 12.4531 18.8174C12.3309 18.9395 12.1799 19.0004 12 19ZM7.95909 8.85L7.275 8.18182C7.14773 8.06515 7.08664 7.91667 7.09173 7.73637C7.09682 7.55606 7.15791 7.40227 7.275 7.275C7.40227 7.14773 7.55606 7.08409 7.73637 7.08409C7.91667 7.08409 8.06515 7.14773 8.18182 7.275L8.85 7.95909C8.96667 8.08636 9.025 8.23485 9.025 8.40455C9.025 8.57424 8.96667 8.72273 8.85 8.85C8.73333 8.97727 8.58761 9.03836 8.41282 9.03327C8.23803 9.02818 8.08679 8.96709 7.95909 8.85ZM15.8182 16.725L15.15 16.0409C15.0333 15.9136 14.975 15.7624 14.975 15.5872C14.975 15.412 15.0333 15.2662 15.15 15.15C15.2667 15.0227 15.4126 14.9618 15.5878 14.9674C15.763 14.9729 15.9141 15.0338 16.0409 15.15L16.725 15.8182C16.8523 15.9348 16.9134 16.0833 16.9083 16.2636C16.9032 16.4439 16.8421 16.5977 16.725 16.725C16.5977 16.8523 16.4439 16.9159 16.2636 16.9159C16.0833 16.9159 15.9348 16.8523 15.8182 16.725ZM15.15 8.85C15.0227 8.73333 14.9616 8.58761 14.9667 8.41282C14.9718 8.23803 15.0329 8.08679 15.15 7.95909L15.8182 7.275C15.9348 7.14773 16.0833 7.08664 16.2636 7.09173C16.4439 7.09682 16.5977 7.15791 16.725 7.275C16.8523 7.40227 16.9159 7.55606 16.9159 7.73637C16.9159 7.91667 16.8523 8.06515 16.725 8.18182L16.0409 8.85C15.9136 8.96667 15.7652 9.025 15.5955 9.025C15.4258 9.025 15.2773 8.96667 15.15 8.85ZM7.275 16.725C7.14773 16.5977 7.08409 16.4439 7.08409 16.2636C7.08409 16.0833 7.14773 15.9348 7.275 15.8182L7.95909 15.15C8.08636 15.0333 8.2374 14.975 8.41218 14.975C8.58697 14.975 8.73291 15.0333 8.85 15.15C8.97727 15.2667 9.03836 15.4126 9.03327 15.5878C9.02818 15.763 8.96709 15.9141 8.85 16.0409L8.18182 16.725C8.06515 16.8523 7.91667 16.9134 7.73637 16.9083C7.55606 16.9032 7.40227 16.8421 7.275 16.725Z" fill="white"/>
</svg>
