<svg width="20" height="20" viewBox="0 0 20 20" fill="none" xmlns="http://www.w3.org/2000/svg">
<g clip-path="url(#clip0_1100_8542)">
<path d="M1.66666 15V17.5C1.66666 18 1.99999 18.3333 2.49999 18.3333H5.83332V15.8333H8.33332V13.3333H9.99999L11.1667 12.1666C12.3249 12.5701 13.5857 12.5685 14.7429 12.1623C15.9001 11.756 16.8852 10.969 17.537 9.93007C18.1887 8.89115 18.4687 7.66178 18.3309 6.44309C18.1932 5.22439 17.6459 4.08851 16.7787 3.22128C15.9114 2.35404 14.7756 1.80679 13.5569 1.66905C12.3382 1.5313 11.1088 1.81122 10.0699 2.46301C9.03096 3.11479 8.24398 4.09986 7.8377 5.25707C7.43141 6.41428 7.42987 7.67511 7.83332 8.8333L1.66666 15Z" stroke="white" stroke-width="2" stroke-linecap="round" stroke-linejoin="round"/>
<path d="M13.75 6.66683C13.9801 6.66683 14.1666 6.48028 14.1666 6.25016C14.1666 6.02004 13.9801 5.8335 13.75 5.8335C13.5199 5.8335 13.3333 6.02004 13.3333 6.25016C13.3333 6.48028 13.5199 6.66683 13.75 6.66683Z" stroke="white" stroke-width="2" stroke-linecap="round" stroke-linejoin="round"/>
</g>
<defs>
<clipPath id="clip0_1100_8542">
<rect width="20" height="20" fill="white"/>
</clipPath>
</defs>
</svg>
