<svg width="20" height="20" viewBox="0 0 20 20" fill="none" xmlns="http://www.w3.org/2000/svg">
<path d="M16.875 3.90625H3.12502C2.83494 3.90625 2.55674 4.02148 2.35162 4.2266C2.1465 4.43172 2.03127 4.70992 2.03127 5V17.5C2.03014 17.7085 2.08916 17.913 2.20125 18.0888C2.31335 18.2646 2.47377 18.4044 2.6633 18.4914C2.80799 18.5585 2.96552 18.5934 3.12502 18.5938C3.38268 18.5939 3.63197 18.5022 3.82814 18.3352L3.83517 18.3289L6.34611 16.1281C6.37423 16.1056 6.40928 16.0934 6.44533 16.0938H16.875C17.1651 16.0938 17.4433 15.9785 17.6484 15.7734C17.8535 15.5683 17.9688 15.2901 17.9688 15V5C17.9688 4.70992 17.8535 4.43172 17.6484 4.2266C17.4433 4.02148 17.1651 3.90625 16.875 3.90625ZM17.0313 15C17.0313 15.0414 17.0148 15.0812 16.9855 15.1105C16.9562 15.1398 16.9165 15.1562 16.875 15.1562H6.44533C6.18802 15.1566 5.93905 15.2476 5.7422 15.4133L5.73517 15.4195L3.22267 17.6203C3.1998 17.6386 3.17225 17.6501 3.14315 17.6535C3.11405 17.6569 3.08458 17.6521 3.0581 17.6395C3.03162 17.627 3.00921 17.6073 2.99341 17.5826C2.97762 17.5579 2.96908 17.5293 2.96877 17.5V5C2.96877 4.95856 2.98523 4.91882 3.01453 4.88951C3.04383 4.86021 3.08358 4.84375 3.12502 4.84375H16.875C16.9165 4.84375 16.9562 4.86021 16.9855 4.88951C17.0148 4.91882 17.0313 4.95856 17.0313 5V15Z" fill="white"/>
</svg>
