<svg width="20" height="20" viewBox="0 0 20 20" fill="none" xmlns="http://www.w3.org/2000/svg">
<path fill-rule="evenodd" clip-rule="evenodd" d="M10.0001 4.36218V5.65484C13.3151 5.65484 16.0001 8.24014 16.0001 11.4321C16.0001 14.0607 14.1776 16.2705 11.6876 16.971C11.2151 17.1082 10.7501 16.7399 10.7501 16.2705C10.7501 15.96 10.9526 15.6711 11.2676 15.5844C13.1276 15.0573 14.5001 13.3963 14.5001 11.4321C14.5001 9.04173 12.4826 7.09914 10.0001 7.09914V8.39179C10.0001 8.71676 9.59509 8.87564 9.35509 8.65177L7.26259 6.63696C7.11259 6.49253 7.11259 6.26867 7.26259 6.12424L9.36259 4.10943C9.59509 3.87834 10.0001 4.03722 10.0001 4.36218ZM6.3925 8.83956C5.83 9.56894 5.5 10.4644 5.5 11.4321C5.5 13.3963 6.8725 15.0573 8.7325 15.5845C9.0475 15.6711 9.25 15.96 9.25 16.2705C9.25 16.7399 8.785 17.1082 8.3125 16.971C5.8225 16.2705 4 14.0607 4 11.4321C4 10.1322 4.45 8.93344 5.2 7.96576C5.47 7.61913 6.01 7.59024 6.325 7.89354C6.5875 8.15352 6.6175 8.5507 6.3925 8.83956Z" fill="white"/>
</svg>
