<svg width="19" height="19" viewBox="0 0 19 19" fill="none" xmlns="http://www.w3.org/2000/svg">
<path fill-rule="evenodd" clip-rule="evenodd" d="M12.3344 9.14166C12.4758 9.28314 12.5553 9.475 12.5553 9.67504C12.5553 9.87509 12.4758 10.0669 12.3344 10.2084L8.0666 14.4762C7.99701 14.5483 7.91376 14.6057 7.82172 14.6453C7.72968 14.6848 7.63068 14.7056 7.53051 14.7065C7.43034 14.7074 7.331 14.6883 7.23828 14.6503C7.14557 14.6124 7.06133 14.5564 6.9905 14.4855C6.91966 14.4147 6.86364 14.3305 6.82571 14.2378C6.78778 14.145 6.76869 14.0457 6.76956 13.9455C6.77043 13.8454 6.79124 13.7464 6.83078 13.6543C6.87032 13.5623 6.92779 13.479 6.99985 13.4094L10.7342 9.67504L6.99985 5.94064C6.86242 5.79836 6.78638 5.60779 6.7881 5.40998C6.78982 5.21217 6.86916 5.02295 7.00904 4.88308C7.14891 4.7432 7.33813 4.66386 7.53594 4.66214C7.73375 4.66042 7.92432 4.73646 8.0666 4.87389L12.3344 9.14166Z" fill="white"/>
</svg>
