<svg width="12" height="13" viewBox="0 0 12 13" fill="none" xmlns="http://www.w3.org/2000/svg">
<path fill-rule="evenodd" clip-rule="evenodd" d="M6.00009 0.362184V1.65484C9.31509 1.65484 12.0001 4.24014 12.0001 7.43206C12.0001 10.0607 10.1776 12.2705 7.68759 12.971C7.21509 13.1082 6.75009 12.7399 6.75009 12.2705C6.75009 11.96 6.95259 11.6711 7.26759 11.5844C9.12759 11.0573 10.5001 9.39631 10.5001 7.43206C10.5001 5.04173 8.48259 3.09914 6.00009 3.09914V4.39179C6.00009 4.71676 5.59509 4.87564 5.35509 4.65177L3.26259 2.63696C3.11259 2.49253 3.11259 2.26867 3.26259 2.12424L5.36259 0.109431C5.59509 -0.121658 6.00009 0.0372158 6.00009 0.362184ZM2.3925 4.83956C1.83 5.56894 1.5 6.46441 1.5 7.43209C1.5 9.39634 2.8725 11.0573 4.7325 11.5845C5.0475 11.6711 5.25 11.96 5.25 12.2705C5.25 12.7399 4.785 13.1082 4.3125 12.971C1.8225 12.2705 0 10.0607 0 7.43209C0 6.13222 0.45 4.93344 1.2 3.96576C1.47 3.61913 2.01 3.59024 2.325 3.89354C2.5875 4.15352 2.6175 4.5507 2.3925 4.83956Z" fill="black"/>
</svg>
