<svg width="16" height="16" viewBox="0 0 16 16" fill="none" xmlns="http://www.w3.org/2000/svg">
<path d="M15.436 9.6C15.5104 9.59989 15.584 9.61451 15.6527 9.64302C15.7214 9.67153 15.7838 9.71335 15.8362 9.76609C15.8886 9.81882 15.9301 9.88141 15.9582 9.95026C15.9863 10.0191 16.0005 10.0928 16 10.1672V12.7304C16.0005 12.8044 15.9865 12.8778 15.9586 12.9464C15.9307 13.015 15.8896 13.0774 15.8376 13.1301C15.7856 13.1828 15.7237 13.2247 15.6555 13.2534C15.5873 13.2822 15.514 13.2972 15.44 13.2976C15.366 13.2972 15.2928 13.2822 15.2245 13.2534C15.1563 13.2247 15.0944 13.1828 15.0424 13.1301C14.9904 13.0774 14.9493 13.015 14.9214 12.9464C14.8936 12.8778 14.8795 12.8044 14.88 12.7304V11.8304C13.4232 14.2752 10.7192 16 7.80561 16C4.27761 16 1.32081 13.8232 0.0384142 10.468C-0.0154303 10.3282 -0.012038 10.1728 0.0478563 10.0355C0.107751 9.89822 0.219325 9.79003 0.358414 9.7344C0.646414 9.6216 0.971214 9.7664 1.08321 10.0584C2.20321 12.988 4.75361 14.8664 7.80561 14.8664C10.5024 14.8664 13.0216 13.1208 14.1952 10.7432L13.0184 10.7512C12.9444 10.7513 12.8711 10.7368 12.8026 10.7086C12.7342 10.6803 12.672 10.6388 12.6197 10.5865C12.5673 10.5342 12.5257 10.4721 12.4974 10.4037C12.469 10.3353 12.4544 10.262 12.4544 10.188C12.4525 10.0386 12.51 9.89445 12.6142 9.78735C12.7185 9.68025 12.861 9.61891 13.0104 9.6168L15.436 9.6ZM8.19601 0C11.7224 0 14.68 2.1768 15.9624 5.532C16.0163 5.67179 16.0129 5.82717 15.953 5.96447C15.8931 6.10178 15.7815 6.20997 15.6424 6.2656C15.5736 6.29244 15.5001 6.30533 15.4263 6.30354C15.3524 6.30175 15.2797 6.2853 15.2123 6.25516C15.1448 6.22502 15.0841 6.18177 15.0335 6.12795C14.9829 6.07412 14.9435 6.01078 14.9176 5.9416C13.7976 3.012 11.2472 1.1336 8.19522 1.1336C5.49841 1.1336 2.97921 2.8792 1.80561 5.2568L2.98241 5.2488C3.05644 5.24869 3.12976 5.26319 3.19819 5.29144C3.26661 5.3197 3.32879 5.36117 3.38117 5.41347C3.43356 5.46578 3.47511 5.52791 3.50347 5.59629C3.53182 5.66467 3.54641 5.73797 3.54641 5.812C3.54834 5.96145 3.49086 6.10555 3.38661 6.21265C3.28236 6.31975 3.13986 6.38109 2.99041 6.3832L0.564014 6.4C0.489649 6.40011 0.415998 6.38549 0.347313 6.35698C0.278628 6.32847 0.216268 6.28665 0.163832 6.23391C0.111397 6.18118 0.0699241 6.11859 0.0418071 6.04974C0.0136902 5.9809 -0.000514033 5.90716 1.42101e-05 5.8328V3.2696C1.42101e-05 2.956 0.250414 2.7024 0.560014 2.7024C0.868814 2.7024 1.12001 2.956 1.12001 3.2696V4.1696C2.57681 1.7248 5.28081 0 8.19442 0H8.19601Z" fill="white"/>
</svg>
